<?xml version="1.0" encoding="UTF-8" standalone="no"?><!DOCTYPE svg PUBLIC "-//W3C//DTD SVG 1.1//EN" "http://www.w3.org/Graphics/SVG/1.1/DTD/svg11.dtd"><svg width="100%" height="100%" viewBox="0 0 4000 4000" version="1.1" xmlns="http://www.w3.org/2000/svg" xmlns:xlink="http://www.w3.org/1999/xlink" xml:space="preserve" xmlns:serif="http://www.serif.com/" style="fill-rule:evenodd;clip-rule:evenodd;stroke-linejoin:round;stroke-miterlimit:2;"><g><g id="Layer3"><path d="M923.153,3474.89c0,0 94.337,135.553 429.693,155.766c335.356,20.213 1268.38,0 1268.38,0c0,0 405.641,17.371 568.844,-307.334l-9.377,-565.31l-966.224,106.251l-1182.05,9.961l-109.265,600.666Z" style="fill:#023e8a;"/></g><g id="Layer1"><path d="M1788.45,3086.18c0,0 -32.702,101.692 -111.328,212.193c-78.626,110.502 285.463,271.427 383.922,285.528c98.46,14.101 214.146,-306.353 267.272,-327.603c0,0 -71.112,-25.971 -87.358,-52.501c0,0 -72.954,-103.051 -28.329,-128.551c44.626,-25.501 -424.179,10.934 -424.179,10.934Z" style="fill:#ffbfa3;"/><path d="M965.015,2905.74c0,0 427.496,240.726 1045.91,249.027c618.418,8.301 1141.38,-161.867 1319.84,-489.753l-99.611,-1286.64l-1481.71,-751.232l-842.542,705.577l58.107,1573.02Z" style="fill:#ffd7bc;"/></g><g id="Layer2"><path d="M825.321,3484.46c0,0 76.594,103.538 193.577,110.502c0,0 -113.502,-262.517 77.293,-213.077l-304.297,-141.355l-41.779,149.014l75.206,94.916Z" style="fill:#023e8a;"/><path d="M679.119,1340.73c0,0 -205.703,759.911 -244.804,889.113c-25.842,85.39 -105.401,346.805 -56.101,482.807c49.301,136.002 83.302,171.702 156.403,232.903c0,0 11.362,115.823 -10.2,226.103c-18.285,93.519 77.268,217.169 95.133,238.004c173.47,202.303 302.672,198.903 311.172,221.003c0,0 -124.101,-198.903 -54.4,-351.905c38.634,-84.806 -45.901,-844.912 -45.901,-844.912l0,-408.006l-25.5,-450.507l-125.802,-234.603Z" style="fill:#0077b6;"/><path d="M3354.12,1565.63c0,0 61.094,440.943 183.283,685.322c122.19,244.378 98.283,452.157 98.283,459.538c-7.586,194.889 -183.153,253.295 -133.152,350.128c50.001,96.833 12.016,252.42 0,276.356c-12.016,23.936 -158.837,264.118 -357.944,325.047c0,0 19.61,-92.142 -17.382,-149.807l98.922,-519.053l144.706,-628.873l-26.112,-525.511l9.396,-273.147Z" style="fill:#0077b6;"/><path d="M1687.19,992.377c0,0 -145.266,485.603 -464.851,506.355c0,0 -41.505,801.038 -45.655,917.251c-4.151,116.212 24.16,298.588 45.655,340.337c45.104,87.604 29.053,232.425 -4.151,282.231c-33.203,49.805 -103.761,435.797 37.354,506.355c0,0 -249.027,37.354 -435.797,-228.275c0,0 -53.956,-103.761 -29.053,-244.877c24.902,-141.115 -25.653,-265.782 -91.31,-348.638c-51.166,-64.569 -113.631,-252.662 -58.107,-381.842c53.366,-124.157 92.663,-326.159 95.984,-485.536c3.32,-159.377 -61.109,-250.663 -69.064,-471.492c-6.421,-178.245 438.288,-1351.39 1397.87,-1052.55c0,0 1039.27,-341.998 1308.22,1245.13c0,0 49.806,481.453 76.369,594.345c26.563,112.893 66.407,325.396 46.485,411.725c-19.922,86.33 -89.068,196.098 -129.494,255.668c-50.383,74.24 -46.485,202.542 -26.563,285.551c19.922,83.009 20.195,246.368 -63.087,338.677c-27.728,30.733 -156.057,146.096 -225.785,116.213c0,0 106.252,-122.854 49.806,-325.396c0,0 -98.323,-239.412 -73.048,-312.114c38.457,-110.62 73.048,-292.192 73.048,-365.24c0,-73.047 13.281,-850.012 -13.282,-1032.63c0,0 -913.813,219.01 -1401.55,-551.247Z" style="fill:#0096c7;"/></g><g id="Layer4"><path d="M1719.15,3210.91c7.101,1.507 13.464,5.42 18.014,11.077c33.796,41.218 183.938,216.643 292.707,216.643c103.589,0 198.171,-151.61 225.713,-199.983c5.463,-9.852 15.115,-16.681 26.224,-18.552c53.758,-8.897 214.739,-15.989 319.695,187.085c130.477,252.453 342.13,592.822 342.13,592.822l-1925.28,0l297.504,-596.222c0,0 122.166,-251.786 403.288,-192.87Z" style="fill:#252525;"/></g><g id="Layer5"><path d="M1976.91,2434.53c-2.718,-9.779 1.176,-20.196 9.641,-25.795c8.466,-5.599 19.576,-5.105 27.511,1.223c49.498,38.85 131.981,89.229 228.648,91.307c93.551,2.012 164.483,-42.998 206.81,-80.087c7.341,-6.423 17.974,-7.41 26.371,-2.447c8.397,4.962 12.662,14.753 10.576,24.281c-17.396,79.473 -73.07,198.823 -250.557,197.655c-173.515,-1.141 -236.405,-124.929 -259,-206.137Z" style="fill:#ff705f;"/><path d="M2113.51,2186.76l0,-19.469c0,-23.041 9.3,-45.106 25.792,-61.196c16.493,-16.09 38.781,-24.842 61.815,-24.274c33.566,0.829 71.73,1.772 104.847,2.589c46.356,1.145 83.56,38.648 84.333,85.012c0.187,11.26 0.317,19.038 0.317,19.038l0,25.273c0,42.452 -34.275,76.939 -76.726,77.201c-33.839,0.209 -73.833,0.456 -109.036,0.674c-49.651,0.306 -90.286,-39.433 -91.087,-89.079c-0.153,-9.492 -0.255,-15.769 -0.255,-15.769Z" style="fill:#ffada3;"/><path d="M1911.3,2130.99c4.247,-4.54 4.622,-11.473 0.891,-16.445c-3.731,-4.972 -10.492,-6.549 -16.038,-3.741c-51.261,25.092 -145.866,56.682 -292.121,52.007c-144.703,-4.625 -238.445,-38.543 -289.755,-64.469c-5.503,-2.872 -12.272,-1.39 -16.071,3.519c-3.799,4.908 -3.535,11.833 0.626,16.439c41.517,45.559 130.077,105.937 308.464,107.616c178.083,1.675 264.063,-52.52 304.004,-94.926Z" style="fill:#252525;"/><path d="M1350.59,2140.93c0,0 -4.949,45.578 -63.3,71.111c-3.222,1.537 -4.883,5.158 -3.946,8.602c0.937,3.444 4.204,5.725 7.76,5.418c42.322,-3.839 96.088,-18.917 111.627,-68.642l-52.141,-16.489Z" style="fill:#252525;"/><path d="M1300.81,2107.13c0,0 -24.583,20.91 -71.447,25.33c-4.311,0.471 -7.649,3.987 -7.897,8.316c-0.248,4.328 2.668,8.203 6.896,9.163c26.292,5.437 65.036,5.061 116.356,-17.092l-43.908,-25.717Z" style="fill:#252525;"/><path d="M2999.15,2180.81c0,0 4.448,40.976 56.173,64.928c3.18,1.605 4.763,5.25 3.764,8.669c-0.999,3.419 -4.295,5.639 -7.839,5.279c-38.827,-4.046 -86.539,-18.543 -100.6,-63.538l48.502,-15.338Z" style="fill:#252525;"/><path d="M3042.79,2144.17c0,0 18.273,15.543 53.229,20.785c4.353,0.714 7.526,4.51 7.457,8.921c-0.07,4.411 -3.36,8.105 -7.734,8.682c-22.101,2.71 -52.317,0.31 -90.72,-16.267l37.768,-22.121Z" style="fill:#252525;"/><path d="M2570.05,2159.96c-5.458,-4.871 -6.429,-13.046 -2.263,-19.059c4.165,-6.014 12.159,-7.98 18.638,-4.583c52.077,26.552 131.156,52.348 239.841,50.379c102.447,-1.856 162.514,-24.909 197.437,-48.933c5.725,-3.927 13.432,-3.241 18.373,1.638c4.941,4.878 5.727,12.575 1.873,18.351c-29.269,43.232 -90.605,88.851 -219.168,88.851c-126.372,0 -206.66,-44.078 -254.731,-86.644Z" style="fill:#252525;"/></g></g></svg>